# xmcd
#
# Track frame offsets:
#	150
#	21482
#	51155
#	74562
#	113532
#	137035
#	161465
#	188712
#	211075
#	238810
#
# Disc length: 3591 seconds
#
# Revision: 1
# Processed by: cddbd v1.4b41PL2 Copyright (c) Steve Scherf et al.
# Submitted via: audiograbber 1.80
#
DISCID=8b0e050a
DTITLE=Bob Dylan - The complete Supper Club Recordings [CD3]
DYEAR=1900
DGENRE=
TTITLE0=Ragged and Dirty
TTITLE1=One more Cup of Coffee
TTITLE2=Blood in my Eyes
TTITLE3=Queen Jane Approximately
TTITLE4=I'll be your Baby tonight
TTITLE5=Disease of Conceit
TTITLE6=I want you
TTITLE7=Ring them Bells
TTITLE8=My Backpages
TTITLE9=Forever Young
EXTD=Supper Club New York 11-17-1993 08:00 PM
EXTT0=
EXTT1=
EXTT2=
EXTT3=
EXTT4=
EXTT5=
EXTT6=
EXTT7=
EXTT8=
EXTT9=
PLAYORDER=
